# xmcd
#
# Track frame offsets:
#	150
#	15260
#	37942
#	52508
#	69497
#	95159
#	110687
#	133484
#	161276
#	173209
#	188217
#	200382
#	218145
#
# Disc length: 3594 seconds
#
# Revision: 0
# Processed by: cddbd v1.5.2PL0 Copyright (c) Steve Scherf et al.
# Submitted via: EasyCDDAExtractor 12.0.0.1
#
DISCID=ac0e080d
DTITLE=The Electrophonics - Little A Lot
DYEAR=2009
DGENRE=Blues
TTITLE0=Let's Live It Up
TTITLE1=Head Over Heel
TTITLE2=Hello World
TTITLE3=Little A Lot
TTITLE4=I Wanna Hold You
TTITLE5=This Time For Good
TTITLE6=I Can't Get No Sleep
TTITLE7=Camel Song
TTITLE8=Bumpin At The Summertime
TTITLE9=Do-Rack
TTITLE10=Catch That Swingtrain
TTITLE11=Right On Time
TTITLE12=Knock Out Girl
EXTD=
EXTT0=
EXTT1=
EXTT2=
EXTT3=
EXTT4=
EXTT5=
EXTT6=
EXTT7=
EXTT8=
EXTT9=
EXTT10=
EXTT11=
EXTT12=
PLAYORDER=
